<svg width="120" height="120" viewBox="0 0 120 120" xmlns="http://www.w3.org/2000/svg">
  <!-- Outer ring representing integration -->
  <circle cx="60" cy="60" r="55" fill="none" stroke="#DEEBFF" stroke-width="3"/>
  
  <!-- GitLab element (left side) -->
  <g transform="translate(30, 45)">
    <!-- Simplified GitLab fox shape -->
    <path d="M0 15 L10 0 L20 15 L15 25 L5 25 Z" fill="#FC6D26"/>
    <path d="M0 15 L5 25 L15 25 L20 15 L10 30" fill="#E24329"/>
  </g>
  
  <!-- Compass element (right side) -->
  <g transform="translate(70, 45)">
    <!-- Compass rose design -->
    <circle cx="10" cy="15" r="12" fill="none" stroke="#0052CC" stroke-width="2"/>
    <path d="M10 6 L10 24 M1 15 L19 15" stroke="#0052CC" stroke-width="2"/>
    <path d="M4.5 8.5 L15.5 21.5 M15.5 8.5 L4.5 21.5" stroke="#0052CC" stroke-width="1" opacity="0.5"/>
    <circle cx="10" cy="15" r="3" fill="#0052CC"/>
  </g>
  
  <!-- Central sync arrows -->
  <g transform="translate(60, 60)">
    <!-- Curved sync arrows -->
    <path d="M-15 -5 Q0 -15 15 -5" fill="none" stroke="#36B37E" stroke-width="2.5" marker-end="url(#arrowhead1)"/>
    <path d="M15 5 Q0 15 -15 5" fill="none" stroke="#36B37E" stroke-width="2.5" marker-end="url(#arrowhead2)"/>
  </g>
  
  <!-- Arrow markers -->
  <defs>
    <marker id="arrowhead1" markerWidth="10" markerHeight="7" refX="9" refY="3.5" orient="auto">
      <polygon points="0 0, 10 3.5, 0 7" fill="#36B37E"/>
    </marker>
    <marker id="arrowhead2" markerWidth="10" markerHeight="7" refX="9" refY="3.5" orient="auto">
      <polygon points="0 0, 10 3.5, 0 7" fill="#36B37E"/>
    </marker>
  </defs>
  
  <!-- Data metrics indicators -->
  <g opacity="0.7">
    <rect x="35" y="85" width="50" height="2" rx="1" fill="#253858"/>
    <rect x="40" y="90" width="15" height="1.5" rx="0.75" fill="#36B37E"/>
    <rect x="60" y="90" width="20" height="1.5" rx="0.75" fill="#0052CC"/>
  </g>
</svg>