<svg width="120" height="120" viewBox="0 0 120 120" xmlns="http://www.w3.org/2000/svg">
  <!-- Background -->
  <rect width="120" height="120" rx="20" fill="#f8f9fa"/>
  
  <!-- Left platform (GitLab) -->
  <rect x="15" y="40" width="25" height="40" rx="4" fill="#fc6d26" opacity="0.9"/>
  <rect x="18" y="45" width="19" height="3" rx="1.5" fill="white" opacity="0.8"/>
  <rect x="18" y="52" width="15" height="2" rx="1" fill="white" opacity="0.6"/>
  <rect x="18" y="57" width="12" height="2" rx="1" fill="white" opacity="0.6"/>
  
  <!-- Right platform (Compass) -->
  <rect x="80" y="40" width="25" height="40" rx="4" fill="#0052cc"/>
  <circle cx="92.5" cy="55" r="6" fill="none" stroke="white" stroke-width="1.5"/>
  <circle cx="92.5" cy="55" r="2" fill="white"/>
  <path d="M92.5 49 L92.5 51 M92.5 59 L92.5 61 M98.5 55 L96.5 55 M88.5 55 L86.5 55" stroke="white" stroke-width="1.2" stroke-linecap="round"/>
  
  <!-- Sync arrows and data flow -->
  <path d="M45 50 L75 50" stroke="#36b37e" stroke-width="2.5" fill="none" marker-end="url(#arrowhead)"/>
  <path d="M75 70 L45 70" stroke="#36b37e" stroke-width="2.5" fill="none" marker-end="url(#arrowhead2)"/>
  
  <!-- Component blocks in transit -->
  <rect x="55" y="47" width="6" height="6" rx="1" fill="#36b37e" opacity="0.8"/>
  <rect x="59" y="67" width="6" height="6" rx="1" fill="#36b37e" opacity="0.8"/>
  
  <!-- Arrow markers -->
  <defs>
    <marker id="arrowhead" markerWidth="10" markerHeight="7" refX="9" refY="3.5" orient="auto">
      <polygon points="0 0, 10 3.5, 0 7" fill="#36b37e"/>
    </marker>
    <marker id="arrowhead2" markerWidth="10" markerHeight="7" refX="9" refY="3.5" orient="auto">
      <polygon points="0 0, 10 3.5, 0 7" fill="#36b37e"/>
    </marker>
  </defs>
</svg>