<svg width="120" height="120" viewBox="0 0 120 120" xmlns="http://www.w3.org/2000/svg">
  <!-- Background -->
  <circle cx="60" cy="60" r="58" fill="#f8f9fa" stroke="#e1e5e9" stroke-width="2"/>
  
  <!-- Main integration symbol - interlocking shapes -->
  <defs>
    <linearGradient id="integrationGradient" x1="0%" y1="0%" x2="100%" y2="100%">
      <stop offset="0%" style="stop-color:#FC6D26;stop-opacity:0.9" />
      <stop offset="50%" style="stop-color:#6B7280;stop-opacity:0.8" />
      <stop offset="100%" style="stop-color:#0052CC;stop-opacity:0.9" />
    </linearGradient>
  </defs>
  
  <!-- GitLab hexagon (left side) -->
  <path d="M35 45 L45 35 L55 35 L60 45 L55 55 L45 55 Z" fill="#FC6D26" opacity="0.8"/>
  
  <!-- Compass circle (right side, overlapping) -->
  <circle cx="75" cy="45" r="15" fill="#0052CC" opacity="0.8"/>
  
  <!-- Intersection/overlap area -->
  <path d="M55 35 L60 45 L55 55 L65 55 Q75 55 75 45 Q75 35 65 35 Z" fill="url(#integrationGradient)"/>
  
  <!-- Inner details -->
  <!-- GitLab icon detail -->
  <path d="M40 40 L45 35 L50 40 L45 45 Z" fill="#ffffff" opacity="0.9"/>
  
  <!-- Compass icon detail -->
  <circle cx="75" cy="45" r="8" fill="#ffffff" opacity="0.9"/>
  <path d="M75 39 L78 45 L75 51 L72 45 Z" fill="#0052CC"/>
  <path d="M69 45 L75 42 L81 45 L75 48 Z" fill="#0052CC"/>
  
  <!-- Integration points/nodes -->
  <circle cx="60" cy="30" r="3" fill="#6B7280"/>
  <circle cx="60" cy="60" r="3" fill="#6B7280"/>
  <circle cx="45" cy="45" r="2" fill="#ffffff"/>
  <circle cx="75" cy="45" r="2" fill="#ffffff"/>
  
  <!-- Data flow lines -->
  <path d="M30 75 Q45 70 60 75 Q75 80 90 75" stroke="#6B7280" stroke-width="2" fill="none" opacity="0.6"/>
  <path d="M30 85 Q45 80 60 85 Q75 90 90 85" stroke="#6B7280" stroke-width="2" fill="none" opacity="0.4"/>
  
  <!-- Component indicators -->
  <rect x="25" y="75" width="6" height="6" rx="1" fill="#FC6D26" opacity="0.6"/>
  <rect x="35" y="80" width="6" height="6" rx="1" fill="#FC6D26" opacity="0.4"/>
  <rect x="55" y="78" width="6" height="6" rx="1" fill="#6B7280" opacity="0.5"/>
  <rect x="75" y="80" width="6" height="6" rx="1" fill="#0052CC" opacity="0.4"/>
  <rect x="85" y="75" width="6" height="6" rx="1" fill="#0052CC" opacity="0.6"/>
  
  <!-- Subtle connection indicators -->
  <line x1="60" y1="33" x2="60" y2="27" stroke="#6B7280" stroke-width="1" opacity="0.5"/>
  <line x1="60" y1="63" x2="60" y2="69" stroke="#6B7280" stroke-width="1" opacity="0.5"/>
  <line x1="57" y1="30" x2="63" y2="30" stroke="#6B7280" stroke-width="1" opacity="0.5"/>
  <line x1="57" y1="60" x2="63" y2="60" stroke="#6B7280" stroke-width="1" opacity="0.5"/>
</svg>