<svg width="120" height="120" viewBox="0 0 120 120" xmlns="http://www.w3.org/2000/svg">
  <!-- Background -->
  <circle cx="60" cy="60" r="58" fill="#f8f9fa" stroke="#e1e5e9" stroke-width="2"/>
  
  <!-- Central hub -->
  <circle cx="60" cy="60" r="8" fill="#6B7280"/>
  
  <!-- GitLab node (top-left) -->
  <circle cx="35" cy="35" r="12" fill="#FC6D26"/>
  <path d="M30 30 L35 25 L40 30 L35 35 Z" fill="#ffffff"/>
  
  <!-- Compass node (top-right) -->
  <circle cx="85" cy="35" r="12" fill="#0052CC"/>
  <circle cx="85" cy="35" r="6" fill="#ffffff"/>
  <path d="M85 29 L87 35 L85 41 L83 35 Z" fill="#0052CC"/>
  <path d="M79 35 L85 33 L91 35 L85 37 Z" fill="#0052CC"/>
  
  <!-- Component nodes (bottom) -->
  <circle cx="40" cy="85" r="6" fill="#FC6D26" opacity="0.7"/>
  <circle cx="60" cy="90" r="6" fill="#6B7280" opacity="0.7"/>
  <circle cx="80" cy="85" r="6" fill="#0052CC" opacity="0.7"/>
  
  <!-- Connection lines with data flow -->
  <defs>
    <linearGradient id="gitlabFlow" x1="0%" y1="0%" x2="100%" y2="100%">
      <stop offset="0%" style="stop-color:#FC6D26;stop-opacity:0.8" />
      <stop offset="100%" style="stop-color:#6B7280;stop-opacity:0.8" />
    </linearGradient>
    <linearGradient id="compassFlow" x1="100%" y1="0%" x2="0%" y2="100%">
      <stop offset="0%" style="stop-color:#0052CC;stop-opacity:0.8" />
      <stop offset="100%" style="stop-color:#6B7280;stop-opacity:0.8" />
    </linearGradient>
  </defs>
  
  <!-- Main connection lines -->
  <line x1="43" y1="43" x2="54" y2="54" stroke="url(#gitlabFlow)" stroke-width="3"/>
  <line x1="77" y1="43" x2="66" y2="54" stroke="url(#compassFlow)" stroke-width="3"/>
  
  <!-- Component connection lines -->
  <line x1="55" y1="65" x2="44" y2="80" stroke="#FC6D26" stroke-width="2" opacity="0.6"/>
  <line x1="60" y1="68" x2="60" y2="84" stroke="#6B7280" stroke-width="2" opacity="0.6"/>
  <line x1="65" y1="65" x2="76" y2="80" stroke="#0052CC" stroke-width="2" opacity="0.6"/>
  
  <!-- Data flow particles -->
  <circle cx="48" cy="48" r="1.5" fill="#FC6D26"/>
  <circle cx="72" cy="48" r="1.5" fill="#0052CC"/>
  <circle cx="50" cy="72" r="1.5" fill="#FC6D26" opacity="0.7"/>
  <circle cx="70" cy="72" r="1.5" fill="#0052CC" opacity="0.7"/>
  
  <!-- Sync indicators around central hub -->
  <path d="M52 55 Q60 50 68 55" stroke="#6B7280" stroke-width="1.5" fill="none" opacity="0.8"/>
  <path d="M68 65 Q60 70 52 65" stroke="#6B7280" stroke-width="1.5" fill="none" opacity="0.8"/>
  
  <!-- Small directional arrows -->
  <path d="M65 53 L68 55 L65 57" stroke="#6B7280" stroke-width="1" fill="none" stroke-linecap="round"/>
  <path d="M55 67 L52 65 L55 63" stroke="#6B7280" stroke-width="1" fill="none" stroke-linecap="round"/>
</svg>