<?xml version="1.0" encoding="UTF-8"?>
<svg width="400" height="120" version="1.1" viewBox="0 0 400 120" xmlns="http://www.w3.org/2000/svg">
  <!-- GitLab Logo (left) -->
  <g transform="translate(20,10) scale(0.8)">
    <path d="M105.0614,30.1185 L105.0614,30.1185 L93.1527,4.4496 C92.7411,3.6036 91.9389,3.0796 91.0451,3.0796 C90.1514,3.0796 89.3492,3.6036 88.9375,4.4496 L77.0289,30.1185 L50.2436,30.1185 L38.335,4.4496 C37.9233,3.6036 37.1211,3.0796 36.2274,3.0796 C35.3336,3.0796 34.5314,3.6036 34.1198,4.4496 L22.2111,30.1185 L22.2111,30.1185 L10.3025,55.7874 C9.8908,56.6334 9.8908,57.6814 10.3025,58.5274 L36.2274,107.0407 C36.6391,107.8867 37.4413,108.4107 38.335,108.4107 C39.2288,108.4107 40.031,107.8867 40.4426,107.0407 L63.5838,65.4154 L86.725,107.0407 C87.1367,107.8867 87.9389,108.4107 88.8326,108.4107 C89.7264,108.4107 90.5286,107.8867 90.9402,107.0407 L116.8651,58.5274 C117.2768,57.6814 117.2768,56.6334 116.8651,55.7874 L105.0614,30.1185 Z" fill="#E24329"/>
  </g>
  
  <!-- Compass Logo (right) -->
  <g transform="translate(280,10) scale(0.8)">
    <circle cx="50" cy="50" r="45" fill="#0052CC" stroke="#0052CC" stroke-width="2"/>
    <path d="M50,15 L50,85 M15,50 L85,50" stroke="white" stroke-width="8"/>
    <circle cx="50" cy="50" r="8" fill="white"/>
  </g>
  
  <!-- Connection Arrow -->
  <g transform="translate(160,40)">
    <path d="M10,20 L70,20" stroke="#253858" stroke-width="4"/>
    <path d="M60,10 L70,20 L60,30" fill="none" stroke="#253858" stroke-width="4"/>
  </g>
</svg>