<svg width="59" height="80" viewBox="0 0 59 80" fill="none" xmlns="http://www.w3.org/2000/svg">
    <rect width="59" height="80" fill="white" fill-opacity="0.01"/>
    <path d="M41.2766 58.9898L38.4965 56.302L34.7554 60.1619L37.5355 62.8497C38.2447 63.5367 38.7447 64.4079 38.9788 65.3676C39.2128 66.3272 39.7128 67.1984 40.422 67.8854L51.6986 78.7888C53.4078 80.439 56.1348 80.3966 57.7873 78.6897C59.4398 76.9828 59.3972 74.2596 57.688 72.6094L46.4114 61.7059C45.7022 61.0189 44.8121 60.5479 43.844 60.3461C42.8759 60.1478 41.9859 59.6768 41.2766 58.9898Z" fill="url(#paint0_linear)"/>
    <path d="M43.7305 60.3214C42.8085 60.109 41.9574 59.6486 41.2766 58.9899L40.4291 58.1719C39.3617 57.1414 37.6596 57.1662 36.6241 58.2321C35.5922 59.298 35.617 60.9978 36.6844 62.0318L37.5319 62.8499C38.2128 63.5085 38.6986 64.3372 38.9433 65.2508C39.8546 64.5603 40.7199 63.7954 41.5319 62.9596C42.3369 62.131 43.0709 61.2457 43.7305 60.3214Z" fill="#B3BAC5"/>
    <path d="M22.858 67.6872C16.8474 67.7828 11.1595 65.5376 6.84031 61.3625C-2.07458 52.7467 -2.30508 38.4932 6.32258 29.5906C10.5034 25.2773 16.1169 22.8481 22.1276 22.7524C28.1382 22.6568 33.8261 24.902 38.1453 29.0771C42.4644 33.2522 44.8971 38.858 44.9928 44.8568C45.0885 50.8557 42.8403 56.5393 38.6595 60.8526C34.4786 65.1623 28.8651 67.5915 22.858 67.6872ZM22.2127 28.1139C17.6382 28.1882 13.3651 30.0368 10.1807 33.3195C3.60982 40.0974 3.78712 50.9513 10.5744 57.5132C13.8616 60.6932 18.1949 62.4001 22.7694 62.3293C27.3439 62.2549 31.6169 60.4064 34.8013 57.1237C37.9857 53.8409 39.6949 49.5135 39.6205 44.9454C39.546 40.3772 37.6949 36.11 34.4077 32.9299C31.1205 29.7499 26.7907 28.0395 22.2127 28.1139Z" fill="url(#paint1_linear)"/>
    <path d="M30.7375 39.9309L28.4326 37.6716C28.0354 37.282 27.4006 37.2891 27.0141 37.6857L22.6134 42.1619L18.1311 37.7672C17.734 37.3776 17.0992 37.3847 16.7127 37.7813L14.4503 40.0831C14.0602 40.4798 14.0673 41.1136 14.4645 41.4996L18.9467 45.8943L14.546 50.3704C14.156 50.7671 14.1631 51.4009 14.5602 51.7869L16.8652 54.0462C17.2623 54.4358 17.8971 54.4287 18.2836 54.0321L22.6843 49.5559L27.1666 53.9506C27.5638 54.3402 28.1985 54.3331 28.585 53.9365L30.8474 51.6347C31.2375 51.238 31.2304 50.6042 30.8333 50.2182L26.3474 45.8235L30.7482 41.3474C31.1382 40.9543 31.1347 40.3204 30.7375 39.9309Z" fill="#C1C7D0"/>
    <path d="M25.2201 9.82686L21.8158 0.152216C21.7378 -0.0744229 21.408 -0.0354694 21.3797 0.201793L20.2804 9.57898L18.1102 9.32401C17.9435 9.3063 17.8158 9.46566 17.8726 9.62147L21.2768 19.2961C21.3548 19.5228 21.6846 19.4838 21.713 19.2465L22.8123 9.86936L24.9825 10.1243C25.1456 10.1456 25.2733 9.98268 25.2201 9.82686Z" fill="#C1C7D0"/>
    <path d="M14.5072 15.9746L10.2767 13.0885C10.1881 13.0283 10.0817 13.1274 10.1349 13.2195L12.4611 17.3025L11.5108 17.8443C11.4469 17.8797 11.4434 17.9718 11.5037 18.0108L15.7342 20.8969C15.8228 20.9571 15.9292 20.8579 15.876 20.7658L13.5498 16.6828L14.5001 16.141C14.5639 16.1056 14.5675 16.0171 14.5072 15.9746Z" fill="#C1C7D0"/>
    <path d="M29.7943 20.7269C29.7553 20.7269 29.7199 20.7198 29.6808 20.7092C29.5071 20.6525 29.4078 20.4719 29.4468 20.2948C29.3582 20.1036 28.7163 19.7105 28.3262 19.4733C27.4468 18.935 26.6879 18.4711 26.8936 17.8585C27.0993 17.2423 27.9858 17.3308 29.0106 17.43C29.4255 17.4725 30.0957 17.5362 30.344 17.4689C30.1844 17.2635 29.6135 16.9165 29.2553 16.697C28.3759 16.1587 27.617 15.6983 27.8227 15.0822C28.0284 14.466 28.9149 14.5545 29.9397 14.6537C30.3546 14.6962 31.0213 14.7599 31.2731 14.6926C31.1135 14.4872 30.5426 14.1402 30.1844 13.9206C29.305 13.3824 28.5461 12.922 28.7518 12.3058C28.9574 11.6932 29.844 11.7782 30.8688 11.8773C31.3227 11.9198 32.0709 11.9942 32.2589 11.895C32.3333 11.7321 32.5213 11.6472 32.695 11.7074C32.8794 11.7711 32.9823 11.9694 32.9184 12.1571C32.7128 12.7697 31.8262 12.6847 30.8014 12.582C30.3865 12.5395 29.7163 12.4758 29.4681 12.5431C29.6277 12.7485 30.1986 13.0955 30.5567 13.3151C31.4362 13.8533 32.195 14.3137 31.9894 14.9299C31.7837 15.5425 30.8972 15.4575 29.8723 15.3584C29.4574 15.3159 28.7872 15.2521 28.539 15.3194C28.6986 15.5248 29.2695 15.8718 29.6277 16.0914C30.5071 16.6297 31.266 17.09 31.0603 17.7062C30.8546 18.3224 29.9681 18.2338 28.9433 18.1347C28.5284 18.0922 27.8582 18.0285 27.6099 18.0957C27.7695 18.3011 28.3404 18.6517 28.6986 18.8677C29.578 19.406 30.3369 19.8699 30.1312 20.4825C30.0816 20.6313 29.9433 20.7269 29.7943 20.7269Z" fill="#DFE1E5"/>
    <path d="M34.8157 22.5399C34.6916 22.5399 34.571 22.4761 34.5072 22.3593C34.1171 21.6723 33.6774 20.8932 34.1455 20.4541C34.6171 20.015 35.3689 20.5108 36.1668 21.0384C36.5037 21.2615 37.0462 21.6192 37.2873 21.6687C37.2554 21.4279 36.9327 20.8613 36.7341 20.5108C36.2625 19.6821 35.8157 18.8995 36.2873 18.4568C36.759 18.0177 37.5107 18.5135 38.3086 19.0411C38.6703 19.2819 39.2696 19.675 39.4753 19.675C39.4753 19.675 39.4753 19.675 39.4788 19.675C39.6207 19.5652 39.8299 19.5794 39.954 19.714C40.0888 19.8556 40.0817 20.0823 39.9363 20.2133C39.4647 20.6559 38.7129 20.1566 37.915 19.629C37.5781 19.4059 37.0356 19.0482 36.7944 18.9986C36.8264 19.2395 37.149 19.806 37.3476 20.1566C37.8193 20.9853 38.2661 21.7679 37.7944 22.2105C37.3228 22.6497 36.571 22.1539 35.7732 21.6262C35.4363 21.4031 34.8937 21.0455 34.6561 20.9959C34.688 21.2367 35.0107 21.8068 35.1242 22.0052C35.22 22.1751 35.1597 22.3912 34.9895 22.4868C34.9363 22.5257 34.876 22.5399 34.8157 22.5399Z" fill="#DFE1E5"/>
    <path d="M8.67726 23.9388C8.64889 23.9388 8.62407 23.9388 8.5957 23.9353C7.95386 23.8574 7.85457 22.9614 7.74818 22.0159C7.70208 21.6158 7.63116 20.9677 7.51414 20.7553C7.34747 20.9359 7.12052 21.545 6.98223 21.9239C6.64889 22.8198 6.32974 23.6626 5.69499 23.5847C5.05315 23.5068 4.95386 22.6109 4.84393 21.6654C4.79428 21.2333 4.71272 20.5145 4.58152 20.3622C4.40421 20.3232 4.28364 20.1568 4.30492 19.9726C4.32974 19.7779 4.5035 19.6433 4.69854 19.6646C5.34038 19.7425 5.43967 20.6384 5.5496 21.5874C5.5957 21.9876 5.66662 22.6356 5.78719 22.8481C5.95386 22.6675 6.18081 22.0584 6.31911 21.6795C6.65244 20.7871 6.96804 19.9479 7.60634 20.0187C8.24818 20.0966 8.34747 20.9925 8.4574 21.9416C8.5035 22.3417 8.57443 22.9862 8.69145 23.2022C8.85457 23.0216 9.08506 22.409 9.16662 22.193C9.234 22.0089 9.43967 21.9168 9.62407 21.9841C9.80847 22.0513 9.90067 22.2567 9.83329 22.4409C9.55669 23.142 9.25882 23.9388 8.67726 23.9388Z" fill="#DFE1E5"/>
    <defs>
        <linearGradient id="paint0_linear" x1="44.0852" y1="71.5489" x2="50.3467" y2="65.2788" gradientUnits="userSpaceOnUse">
            <stop stop-color="#B3BAC5"/>
            <stop offset="1" stop-color="#DFE1E5" stop-opacity="0.5"/>
        </linearGradient>
        <linearGradient id="paint1_linear" x1="6.58021" y1="61.1098" x2="38.36" y2="29.2863" gradientUnits="userSpaceOnUse">
            <stop offset="0.5572" stop-color="#C1C7D0"/>
            <stop offset="0.966" stop-color="#E9EBEF" stop-opacity="0.5"/>
        </linearGradient>
    </defs>
</svg>
