<svg width="245" height="205" viewBox="0 0 245 205" fill="none" xmlns="http://www.w3.org/2000/svg">
<g clip-path="url(#clip0)">
<path d="M0.298828 0H244.399V204.5H0.298828V0Z" fill="white" fill-opacity="0.01"/>
<path d="M244.099 19.9004H0.298828V204.52H244.099V19.9004Z" fill="url(#paint0_linear)"/>
<path d="M244.099 19.9004H0.298828V39.5704H244.099V19.9004Z" fill="#EBECF0"/>
<path style="mix-blend-mode:multiply" opacity="0.1" d="M244.399 56.6996C175.199 50.6996 135.499 57.5996 111.899 65.3996C107.199 66.8996 101.199 69.0996 91.3986 71.6996C55.6986 81.1996 22.7986 81.6996 0.598633 80.6996V39.5996H244.399V56.6996Z" fill="url(#paint1_linear)"/>
<path d="M15.9984 34.7996C18.8151 34.7996 21.0984 32.5163 21.0984 29.6996C21.0984 26.883 18.8151 24.5996 15.9984 24.5996C13.1818 24.5996 10.8984 26.883 10.8984 29.6996C10.8984 32.5163 13.1818 34.7996 15.9984 34.7996Z" fill="#253858"/>
<path d="M32.6986 34.7996C35.5153 34.7996 37.7986 32.5163 37.7986 29.6996C37.7986 26.883 35.5153 24.5996 32.6986 24.5996C29.882 24.5996 27.5986 26.883 27.5986 29.6996C27.5986 32.5163 29.882 34.7996 32.6986 34.7996Z" fill="#A5ADBA"/>
<path d="M49.2992 34.7996C52.1159 34.7996 54.3992 32.5163 54.3992 29.6996C54.3992 26.883 52.1159 24.5996 49.2992 24.5996C46.4826 24.5996 44.1992 26.883 44.1992 29.6996C44.1992 32.5163 46.4826 34.7996 49.2992 34.7996Z" fill="#0065FF"/>
<path style="mix-blend-mode:multiply" opacity="0.1" d="M117.799 79.799L165.099 161.799C166.044 163.437 166.543 165.294 166.546 167.186C166.548 169.077 166.054 170.936 165.112 172.576C164.17 174.216 162.814 175.581 161.18 176.532C159.546 177.484 157.69 177.99 155.799 177.999H61.0986C59.2073 177.99 57.3516 177.484 55.7171 176.532C54.0827 175.581 52.7269 174.216 51.7852 172.576C50.8436 170.936 50.3492 169.077 50.3516 167.186C50.3539 165.294 50.8529 163.437 51.7986 161.799L99.0986 79.799C100.047 78.1586 101.41 76.7966 103.051 75.8497C104.692 74.9028 106.554 74.4043 108.449 74.4043C110.343 74.4043 112.205 74.9028 113.846 75.8497C115.487 76.7966 116.85 78.1586 117.799 79.799Z" fill="url(#paint2_linear)"/>
<path d="M134.599 70.7998L181.899 152.8C182.849 154.445 183.348 156.312 183.346 158.212C183.344 160.111 182.841 161.977 181.887 163.62C180.934 165.263 179.564 166.626 177.915 167.571C176.267 168.515 174.399 169.008 172.499 169H77.8987C75.999 169.008 74.1306 168.515 72.4823 167.571C70.8339 166.626 69.4639 165.263 68.5104 163.62C67.557 161.977 67.0538 160.111 67.0518 158.212C67.0497 156.312 67.5488 154.445 68.4987 152.8L115.799 70.7998C116.761 69.1613 118.134 67.8027 119.783 66.8586C121.432 65.9146 123.299 65.418 125.199 65.418C127.099 65.418 128.966 65.9146 130.615 66.8586C132.263 67.8027 133.637 69.1613 134.599 70.7998Z" fill="url(#paint3_linear)"/>
<path d="M129.199 130.301L131.199 98.7008C131.254 97.8141 131.126 96.9257 130.824 96.0903C130.522 95.255 130.052 94.4904 129.442 93.8438C128.833 93.1972 128.098 92.6823 127.282 92.3309C126.466 91.9795 125.587 91.7991 124.699 91.8008C123.811 91.7991 122.931 91.9795 122.115 92.3309C121.3 92.6823 120.564 93.1972 119.955 93.8438C119.346 94.4904 118.876 95.255 118.574 96.0903C118.272 96.9257 118.144 97.8141 118.199 98.7008L120.199 130.301C120.275 131.442 120.783 132.51 121.618 133.291C122.454 134.071 123.556 134.503 124.699 134.501C125.842 134.503 126.943 134.071 127.779 133.291C128.615 132.51 129.123 131.442 129.199 130.301Z" fill="#253858"/>
<path d="M117.898 147.099C117.895 148.045 118.088 148.981 118.467 149.848C118.845 150.715 119.401 151.493 120.097 152.133C120.794 152.773 121.616 153.26 122.511 153.565C123.407 153.869 124.356 153.983 125.298 153.899C126.974 153.636 128.494 152.764 129.567 151.451C130.641 150.138 131.194 148.476 131.119 146.781C131.045 145.087 130.349 143.479 129.165 142.265C127.981 141.051 126.39 140.315 124.698 140.199C123.797 140.199 122.904 140.378 122.073 140.726C121.241 141.074 120.487 141.584 119.854 142.226C119.221 142.868 118.723 143.63 118.387 144.466C118.051 145.303 117.885 146.198 117.898 147.099Z" fill="#253858"/>
<path d="M134.899 26.7992L127.599 0.399204C127.499 -0.200796 126.599 -0.100796 126.499 0.499204L121.899 25.1992L116.199 24.1992C115.699 24.0992 115.299 24.4992 115.499 24.8992L122.799 51.1992C122.846 51.3063 122.922 51.3974 123.02 51.4613C123.118 51.5253 123.232 51.5594 123.349 51.5594C123.466 51.5594 123.58 51.5253 123.678 51.4613C123.775 51.3974 123.852 51.3063 123.899 51.1992L128.499 26.4992L134.199 27.4992C134.295 27.5171 134.393 27.5114 134.487 27.4826C134.58 27.4537 134.664 27.4026 134.733 27.3337C134.802 27.2647 134.853 27.18 134.882 27.0869C134.911 26.9938 134.917 26.895 134.899 26.7992Z" fill="#FFC400"/>
<path d="M108.699 41.1993L97.999 32.7993C97.799 32.5993 97.499 32.7993 97.599 33.0993L103.099 44.2993L100.499 45.5993C100.299 45.6993 100.299 45.8993 100.399 46.0993L111.099 54.4993C111.299 54.6993 111.599 54.3993 111.499 54.1993L106.099 42.8993L108.699 41.5993C108.752 41.5993 108.803 41.5782 108.84 41.5407C108.878 41.5032 108.899 41.4523 108.899 41.3993C108.899 41.3462 108.878 41.2953 108.84 41.2578C108.803 41.2203 108.752 41.1993 108.699 41.1993Z" fill="#FFAB00"/>
<path d="M144.199 55.8992C144.09 55.9153 143.979 55.9056 143.875 55.8708C143.771 55.8361 143.676 55.7773 143.599 55.6992C143.421 55.5618 143.295 55.3688 143.241 55.1512C143.187 54.9335 143.207 54.7039 143.299 54.4992C142.269 53.0524 141.096 51.7124 139.799 50.4992C136.899 47.4992 134.999 45.5992 135.999 44.0992C136.999 42.5992 139.599 43.8992 143.299 45.7992C144.692 46.5207 146.128 47.1552 147.599 47.6992C146.618 46.4571 145.548 45.2874 144.399 44.1992C141.499 41.1992 139.599 39.2992 140.599 37.7992C141.599 36.2992 144.199 37.5992 147.899 39.4992C149.292 40.2207 150.728 40.8552 152.199 41.3992C151.218 40.1571 150.148 38.9874 148.999 37.8992C146.099 34.8992 144.199 32.9992 145.199 31.4992C146.199 29.9992 148.799 31.2992 152.499 33.1992C153.999 33.9992 156.599 35.2992 157.399 35.2992C157.561 35.1545 157.766 35.0664 157.982 35.0483C158.199 35.0303 158.415 35.0833 158.599 35.1992C158.717 35.2675 158.817 35.3616 158.894 35.4744C158.97 35.5872 159.019 35.7159 159.039 35.8507C159.058 35.9855 159.046 36.1228 159.005 36.2525C158.963 36.3822 158.893 36.5007 158.799 36.5992C157.799 38.0992 155.299 36.8992 151.599 34.9992C150.193 34.2052 148.721 33.5359 147.199 32.9992C147.899 33.8992 149.399 35.4992 150.399 36.4992C153.399 39.4992 155.299 41.3992 154.199 42.8992C153.099 44.3992 150.699 43.0992 146.999 41.1992C145.572 40.4763 144.103 39.8417 142.599 39.2992C143.299 40.1992 144.799 41.7992 145.799 42.7992C148.799 45.7992 150.699 47.6992 149.599 49.1992C148.499 50.6992 146.099 49.3992 142.399 47.4992C140.972 46.7763 139.503 46.1417 137.999 45.5992C138.699 46.4992 140.199 48.0992 141.199 49.0992C144.199 52.0992 146.099 53.9992 144.999 55.4992C144.912 55.6298 144.792 55.7355 144.652 55.8056C144.512 55.8758 144.355 55.9081 144.199 55.8992Z" fill="#344563"/>
<path d="M149.699 69.9992C149.519 69.9956 149.344 69.9481 149.187 69.861C149.03 69.7738 148.897 69.6496 148.799 69.4992C147.799 67.5992 146.599 65.4992 147.899 64.3992C149.199 63.2992 151.199 64.4992 153.299 65.9992C154.224 66.6049 155.193 67.1398 156.199 67.5992C155.841 66.5518 155.372 65.546 154.799 64.5992C153.499 62.3992 152.399 60.2992 153.699 59.0992C154.999 57.8992 156.999 59.2992 159.099 60.6992C160.012 61.4073 161.022 61.9799 162.099 62.3992C162.311 62.2268 162.583 62.1457 162.855 62.1739C163.127 62.202 163.376 62.337 163.549 62.5492C163.721 62.7613 163.802 63.0333 163.774 63.3052C163.746 63.5772 163.611 63.8268 163.399 63.9992C162.099 65.1992 160.099 63.7992 157.999 62.3992C157.097 61.7284 156.125 61.1583 155.099 60.6992C155.437 61.7544 155.907 62.7624 156.499 63.6992C157.799 65.8992 158.999 67.9992 157.599 69.1992C156.199 70.3992 154.299 69.0992 152.199 67.5992C151.33 66.932 150.391 66.3619 149.399 65.8992C149.676 66.8175 150.08 67.6926 150.599 68.4992C150.714 68.7412 150.737 69.017 150.664 69.2748C150.59 69.5326 150.425 69.7547 150.199 69.8992L149.699 69.9992Z" fill="#5E6C84"/>
<path d="M96.1989 67.1986L95.4989 66.9986C93.8989 66.2986 94.2989 63.9986 94.6989 61.3986C94.9341 60.3151 95.0348 59.2068 94.9989 58.0986C94.2079 58.8876 93.5038 59.7592 92.8989 60.6986C91.3989 62.6986 89.9989 64.6986 88.2989 63.9986C88.0629 63.8894 87.8787 63.6927 87.7854 63.45C87.6921 63.2073 87.6969 62.9378 87.7989 62.6986C87.889 62.4676 88.0617 62.2784 88.2834 62.1675C88.5051 62.0566 88.7601 62.0321 88.9989 62.0986C89.8819 61.3422 90.6559 60.4672 91.2989 59.4986C92.7989 57.3986 94.1989 55.4986 95.8989 56.1986C97.5989 56.8986 97.0989 59.1986 96.6989 61.7986C96.4638 62.8821 96.3631 63.9905 96.3989 65.0986C97.166 64.2883 97.8681 63.4189 98.4989 62.4986C99.9989 60.3986 101.399 58.4986 103.099 59.1986C104.799 59.8986 104.299 62.1986 103.899 64.2986C103.852 64.5545 103.715 64.7853 103.514 64.9501C103.312 65.1149 103.059 65.2029 102.799 65.1986C102.666 65.1748 102.54 65.1245 102.427 65.0507C102.315 64.9769 102.218 64.8811 102.143 64.769C102.069 64.6569 102.017 64.5309 101.993 64.3985C101.968 64.2662 101.97 64.1301 101.999 63.9986C102.165 63.075 102.232 62.1364 102.199 61.1986C101.431 61.9721 100.728 62.8083 100.099 63.6986C98.799 65.4986 97.4989 67.1986 96.1989 67.1986Z" fill="#5E6C84"/>
</g>
<defs>
<linearGradient id="paint0_linear" x1="15.0988" y1="219.34" x2="229.309" y2="5.1304" gradientUnits="userSpaceOnUse">
<stop stop-color="#C1C7D0"/>
<stop offset="1" stop-color="#FAFBFC"/>
</linearGradient>
<linearGradient id="paint1_linear" x1="71.3006" y1="2540.2" x2="59512.2" y2="2540.2" gradientUnits="userSpaceOnUse">
<stop stop-color="#091E42" stop-opacity="0.1"/>
<stop offset="1" stop-color="#091E42"/>
</linearGradient>
<linearGradient id="paint2_linear" x1="68.4686" y1="189.849" x2="148.409" y2="109.909" gradientUnits="userSpaceOnUse">
<stop stop-color="#091E42" stop-opacity="0.1"/>
<stop offset="1" stop-color="#091E42"/>
</linearGradient>
<linearGradient id="paint3_linear" x1="162.399" y1="110.9" x2="65.0587" y2="156.29" gradientUnits="userSpaceOnUse">
<stop stop-color="#FFD740"/>
<stop offset="1" stop-color="#FFAB00"/>
</linearGradient>
<clipPath id="clip0">
<path d="M0.298828 0H244.399V204.5H0.298828V0Z" fill="white"/>
</clipPath>
</defs>
</svg>
