<svg id="Layer_1" data-name="Layer 1" xmlns="http://www.w3.org/2000/svg" xmlns:xlink="http://www.w3.org/1999/xlink" viewBox="0 0 234.95 210.11"><defs><style>.cls-1{fill:url(#linear-gradient);}.cls-2,.cls-4,.cls-6{opacity:0.6;}.cls-2,.cls-4,.cls-5,.cls-6{isolation:isolate;}.cls-2{fill:url(#linear-gradient-2);}.cls-3{fill:#e7e8ec;}.cls-4{fill:url(#linear-gradient-3);}.cls-5{fill:#ebecf0;opacity:0.2;}.cls-6{fill:url(#linear-gradient-4);}.cls-7{fill:url(#linear-gradient-5);}.cls-8{fill:#fff;}</style><linearGradient id="linear-gradient" x1="28.89" y1="13.57" x2="195.8" y2="180.48" gradientTransform="matrix(1, 0, 0, -1, 0, 212)" gradientUnits="userSpaceOnUse"><stop offset="0.1" stop-color="#c1c7d0"/><stop offset="1" stop-color="#ebecf0" stop-opacity="0.5"/></linearGradient><linearGradient id="linear-gradient-2" x1="163.81" y1="153.42" x2="204.22" y2="193.83" gradientTransform="matrix(1, 0, 0, -1, 0, 212)" gradientUnits="userSpaceOnUse"><stop offset="0" stop-color="#a5adba" stop-opacity="0"/><stop offset="1" stop-color="#a5adba"/></linearGradient><linearGradient id="linear-gradient-3" x1="163.81" y1="153.42" x2="204.22" y2="193.83" gradientTransform="matrix(1, 0, 0, -1, 0, 212)" gradientUnits="userSpaceOnUse"><stop offset="0" stop-color="#a5adba" stop-opacity="0"/><stop offset="0.11" stop-color="#a5adba" stop-opacity="0.07"/><stop offset="0.32" stop-color="#a5adba" stop-opacity="0.24"/><stop offset="0.6" stop-color="#a5adba" stop-opacity="0.52"/><stop offset="0.93" stop-color="#a5adba" stop-opacity="0.91"/><stop offset="1" stop-color="#a5adba"/></linearGradient><linearGradient id="linear-gradient-4" x1="90.35" y1="74.82" x2="144.6" y2="129.07" gradientTransform="matrix(1, 0, 0, -1, 0, 212)" gradientUnits="userSpaceOnUse"><stop offset="0" stop-color="#c1c7d0" stop-opacity="0.1"/><stop offset="0.04" stop-color="#c1c7d0" stop-opacity="0.25"/><stop offset="0.09" stop-color="#c1c7d0" stop-opacity="0.43"/><stop offset="0.14" stop-color="#c1c7d0" stop-opacity="0.58"/><stop offset="0.21" stop-color="#c1c7d0" stop-opacity="0.71"/><stop offset="0.28" stop-color="#c1c7d0" stop-opacity="0.82"/><stop offset="0.36" stop-color="#c1c7d0" stop-opacity="0.9"/><stop offset="0.46" stop-color="#c1c7d0" stop-opacity="0.96"/><stop offset="0.6" stop-color="#c1c7d0" stop-opacity="0.99"/><stop offset="1" stop-color="#c1c7d0"/></linearGradient><linearGradient id="linear-gradient-5" x1="99.35" y1="80.82" x2="153.6" y2="135.07" gradientTransform="matrix(1, 0, 0, -1, 0, 212)" gradientUnits="userSpaceOnUse"><stop offset="0" stop-color="#0052cc"/><stop offset="1" stop-color="#2684ff"/></linearGradient></defs><title>Artboard 1</title><g id="Layer_2" data-name="Layer 2"><g id="Layer_1-2" data-name="Layer 1-2"><path class="cls-1" d="M179.65,165.78V152.5H203V139.21h26.21V125.92H203V38.74H164.28V0H40.57V44.85H69.32V58.14H4.15V71.43H26.47V84.71H59.14V98H0v13.29H40.57v98.82H203V192.36H154.8V179.07H235V165.78Z"/><polygon class="cls-2" points="164.55 59.32 202.75 38.74 164.55 38.74 164.55 59.32"/><polygon class="cls-3" points="203.02 38.71 202.99 38.71 203.02 38.74 203.02 38.71"/><polygon class="cls-4" points="164.55 59.32 202.75 38.74 164.55 38.74 164.55 59.32"/><polygon class="cls-5" points="164.55 38.74 202.75 38.74 203.02 38.74 203.02 38.74 203.02 38.74 202.99 38.71 164.28 0 164.28 0 164.28 38.74 164.55 38.74"/></g></g><circle class="cls-6" cx="117.47" cy="110.06" r="38.36"/><circle class="cls-7" cx="126.47" cy="104.06" r="38.36"/><path id="_Clipping_Path_" data-name=" Clipping Path " class="cls-8" d="M146.81,107.62v-7A1.87,1.87,0,0,0,145,98.74H131.89V85.67A1.87,1.87,0,0,0,130,83.8h-7a1.87,1.87,0,0,0-1.89,1.85h0V98.72H108.08a1.88,1.88,0,0,0-1.89,1.86h0v7a1.88,1.88,0,0,0,1.86,1.89h13.07v13.06a1.88,1.88,0,0,0,1.86,1.89h7a1.88,1.88,0,0,0,1.83-1.91V109.44h13.08a1.85,1.85,0,0,0,1.92-1.8Z"/></svg>