<?xml version="1.0" encoding="UTF-8" standalone="no"?>
<svg width="210" height="194" viewBox="0 0 210 194" fill="none" xmlns="http://www.w3.org/2000/svg">
    <!-- GitLab Logo -->
    <path d="M105 193.655L148.09 74.861H61.91L105 193.655Z" fill="#E24329"/>
    <path d="M105 193.655L61.91 74.861H12.063L105 193.655Z" fill="#FC6D26"/>
    <path d="M12.063 74.861L0.345 111.657C-1.05 116.565 0.584 121.842 4.831 124.982L105 193.655L12.063 74.861Z" fill="#FCA326"/>
    <path d="M12.063 74.861H61.91L39.986 0.968C38.591 -2.94 33.582 -2.94 32.187 0.968L12.063 74.861Z" fill="#E24329"/>
    <path d="M105 193.655L148.09 74.861H197.937L105 193.655Z" fill="#FC6D26"/>
    <path d="M197.937 74.861L209.655 111.657C211.05 116.565 209.416 121.842 205.169 124.982L105 193.655L197.937 74.861Z" fill="#FCA326"/>
    <path d="M197.937 74.861H148.09L170.014 0.968C171.409 -2.94 176.418 -2.94 177.813 0.968L197.937 74.861Z" fill="#E24329"/>
    <!-- Compass Element -->
    <circle cx="105" cy="134" r="40" fill="#0052CC" opacity="0.9"/>
    <path d="M105 104L125 144H85L105 104Z" fill="white"/>
</svg>