<svg width="216" height="255" viewBox="0 0 216 255" fill="none" xmlns="http://www.w3.org/2000/svg">
<g clip-path="url(#clip0)">
<path d="M0.399902 0.400391H215.9V254.3H0.399902V0.400391Z" fill="white" fill-opacity="0.01"/>
<path fill-rule="evenodd" clip-rule="evenodd" d="M198.3 170.999C196.324 170.179 194.649 168.769 193.503 166.961C192.358 165.154 191.798 163.037 191.9 160.899C192 159.599 192 158.199 192 156.799C192.051 138.292 186.045 120.275 174.9 105.499C174.226 104.559 173.907 103.411 173.999 102.258C174.09 101.105 174.586 100.022 175.4 99.1995L161.7 85.5995C160.803 86.4924 159.62 87.0417 158.359 87.1514C157.098 87.261 155.838 86.9241 154.8 86.1995C133.7 71.6995 105.8 66.4995 76.7999 76.1995C55.6999 83.3995 32.5999 106.699 25.5999 127.899C12.1999 168.699 28.5999 207.499 58.4999 227.699C59.6717 228.507 60.53 229.693 60.9306 231.059C61.3312 232.425 61.2497 233.887 60.6999 235.199L85.8999 245.699L86.1999 245.099C86.7058 243.811 87.6347 242.733 88.834 242.043C90.0334 241.352 91.4319 241.09 92.7999 241.299C97.3245 242.075 101.91 242.443 106.5 242.399C120.772 242.408 134.819 238.844 147.36 232.031C159.901 225.219 170.538 215.376 178.3 203.399C179.084 202.172 180.281 201.265 181.674 200.844C183.068 200.422 184.567 200.512 185.9 201.099H186L198.4 171.199C198.4 171.099 198.4 171.099 198.3 170.999Z" fill="url(#paint0_linear)"/>
<path d="M110.3 177.699C101.655 175.992 93.3677 172.813 85.7999 168.299C67.1999 157.299 57.5999 143.299 52.8999 130.299C42.3118 133.959 31.959 138.267 21.8999 143.199C19.3262 159.306 21.403 175.814 27.8863 190.782C34.3696 205.751 44.99 218.558 58.4999 227.699C59.4663 228.365 60.2236 229.292 60.6839 230.372C61.1442 231.452 61.2884 232.64 61.0999 233.799C69.1238 238.461 77.8297 241.836 86.8999 243.799C87.5768 242.9 88.4787 242.196 89.5145 241.757C90.5503 241.318 91.6835 241.16 92.7999 241.299C97.3245 242.074 101.91 242.442 106.5 242.399C118.026 242.4 129.433 240.071 140.036 235.552C150.639 231.032 160.219 224.415 168.2 216.099C158.9 190.599 125.9 180.899 110.3 177.699Z" fill="url(#paint1_linear)"/>
<path d="M49.8 93.0996C38.7 103.2 29.6 115.9 25.6 127.9C24.6 131.1 23.7 134.2 23 137.4C32.2412 133.003 41.7229 129.13 51.4 125.8C48.442 115.154 47.8954 103.983 49.8 93.0996Z" fill="url(#paint2_linear)"/>
<path d="M101.1 118.499C101.423 118.464 101.736 118.362 102.017 118.198C102.297 118.034 102.54 117.813 102.729 117.548C102.918 117.284 103.049 116.982 103.113 116.663C103.177 116.344 103.172 116.016 103.1 115.699C103.001 115.078 102.663 114.521 102.158 114.147C101.653 113.773 101.022 113.612 100.4 113.699C83.7365 116.253 67.3369 120.303 51.3999 125.799C51.8095 127.327 52.3104 128.83 52.8999 130.299C68.5728 124.903 84.7068 120.953 101.1 118.499Z" fill="url(#paint3_linear)"/>
<path d="M51.3999 125.799C41.7228 129.129 32.2411 133.002 22.9999 137.399C22.5999 139.299 22.1999 141.299 21.8999 143.199C31.959 138.267 42.3119 133.959 52.8999 130.299C52.3104 128.83 51.8095 127.327 51.3999 125.799Z" fill="url(#paint4_linear)"/>
<path d="M51.3999 125.799C41.7228 129.129 32.2411 133.002 22.9999 137.399C22.5999 139.299 22.1999 141.299 21.8999 143.199C31.959 138.267 42.3119 133.959 52.8999 130.299C52.3104 128.83 51.8095 127.327 51.3999 125.799Z" fill="url(#paint5_linear)"/>
<path fill-rule="evenodd" clip-rule="evenodd" d="M98.2 225.9C96.3 230 86.3 229.4 80.5 228.2C63.1 224.4 49.3 206.8 52.5 201.4C55.7 196 68.8 200 77.5 203.9C89.3 209.4 100.5 220.8 98.2 225.9Z" fill="url(#paint6_linear)"/>
<path fill-rule="evenodd" clip-rule="evenodd" d="M79.9998 190.901C77.3998 194.201 68.4998 190.801 68.0998 190.701C61.0998 187.901 54.1998 180.801 55.8998 176.701C57.5998 172.601 65.6998 171.801 71.4998 174.601C77.2998 177.401 82.5998 187.601 79.9998 190.901Z" fill="url(#paint7_linear)"/>
<path fill-rule="evenodd" clip-rule="evenodd" d="M45.5 189.101C42.3 190.701 36.6 184.901 36.3 184.601C32 180.001 29.1 172.001 31.9 169.401C34.7 166.801 41.3 169.201 44.8 173.401C48.3 177.601 48.7 187.501 45.5 189.101Z" fill="url(#paint8_linear)"/>
<path fill-rule="evenodd" clip-rule="evenodd" d="M164.4 119.101C160.7 122.001 151.9 115.901 151.5 115.601C144.7 110.901 139.1 101.301 142 97.3011C144.9 93.3011 153.9 94.6011 159.5 99.2011C165.1 103.801 168.1 116.101 164.4 119.101Z" fill="url(#paint9_linear)"/>
<path d="M102.2 0.400391H102.1C100.995 0.400391 100.1 1.29582 100.1 2.40039V116.42C100.1 117.525 100.995 118.42 102.1 118.42H102.2C103.304 118.42 104.2 117.525 104.2 116.42V2.40039C104.2 1.29582 103.304 0.400391 102.2 0.400391Z" fill="#C1C7D0"/>
<path fill-rule="evenodd" clip-rule="evenodd" d="M109.7 215.6C111.1 223.5 132.1 229.4 137.9 222.4C140.9 218.8 140.1 211.5 136 207C131.9 202.5 122.1 203.1 121.2 203.3C114.8 205 108.9 211 109.7 215.6Z" fill="url(#paint10_linear)"/>
<path fill-rule="evenodd" clip-rule="evenodd" d="M171.4 142.101C173.1 147.901 178.3 153.901 181.1 152.901C183.9 151.901 185.9 140.001 180.4 134.401C178.3 132.301 174.6 130.401 172.4 131.701C170.2 133.001 170.6 139.301 171.4 142.101Z" fill="url(#paint11_linear)"/>
<path d="M39 228.4C40.1046 228.4 41 227.505 41 226.4C41 225.296 40.1046 224.4 39 224.4C37.8954 224.4 37 225.296 37 226.4C37 227.505 37.8954 228.4 39 228.4Z" fill="#FFC400"/>
<path d="M198.4 208.9C199.504 208.9 200.4 208.005 200.4 206.9C200.4 205.796 199.504 204.9 198.4 204.9C197.295 204.9 196.4 205.796 196.4 206.9C196.4 208.005 197.295 208.9 198.4 208.9Z" fill="#FFE380"/>
<path d="M184.1 87.8008C185.204 87.8008 186.1 86.9054 186.1 85.8008C186.1 84.6962 185.204 83.8008 184.1 83.8008C182.995 83.8008 182.1 84.6962 182.1 85.8008C182.1 86.9054 182.995 87.8008 184.1 87.8008Z" fill="#FFF0B2"/>
<path d="M44.5998 254.301C46.6985 254.301 48.3998 252.6 48.3998 250.501C48.3998 248.402 46.6985 246.701 44.5998 246.701C42.5011 246.701 40.7998 248.402 40.7998 250.501C40.7998 252.6 42.5011 254.301 44.5998 254.301Z" fill="#FFC400"/>
<path d="M190.2 229.301C192.299 229.301 194 227.6 194 225.501C194 223.402 192.299 221.701 190.2 221.701C188.101 221.701 186.4 223.402 186.4 225.501C186.4 227.6 188.101 229.301 190.2 229.301Z" fill="#FFE380"/>
<path d="M31.8999 86.0996C33.0045 86.0996 33.8999 85.2042 33.8999 84.0996C33.8999 82.995 33.0045 82.0996 31.8999 82.0996C30.7953 82.0996 29.8999 82.995 29.8999 84.0996C29.8999 85.2042 30.7953 86.0996 31.8999 86.0996Z" fill="#FFE380"/>
<path d="M17.5998 103.301C19.6985 103.301 21.3998 101.6 21.3998 99.5012C21.3998 97.4025 19.6985 95.7012 17.5998 95.7012C15.5011 95.7012 13.7998 97.4025 13.7998 99.5012C13.7998 101.6 15.5011 103.301 17.5998 103.301Z" fill="#FFC400"/>
<path d="M206.7 84.6996C208.799 84.6996 210.5 82.9983 210.5 80.8996C210.5 78.8009 208.799 77.0996 206.7 77.0996C204.601 77.0996 202.9 78.8009 202.9 80.8996C202.9 82.9983 204.601 84.6996 206.7 84.6996Z" fill="#FFF0B2"/>
<path d="M11.5999 206.701C12.2027 209.442 13.5777 211.954 15.5624 213.939C17.5471 215.923 20.0586 217.298 22.7999 217.901C20.0689 218.526 17.5695 219.909 15.5884 221.89C13.6074 223.871 12.225 226.37 11.5999 229.101C10.9971 226.36 9.62209 223.848 7.63737 221.864C5.65266 219.879 3.14122 218.504 0.399902 217.901H0.399902C3.14647 217.31 5.6641 215.939 7.65071 213.952C9.63733 211.965 11.0086 209.448 11.5999 206.701Z" fill="#FFC400"/>
<path d="M204.7 121.801C205.303 119.059 206.678 116.548 208.663 114.563C210.647 112.579 213.159 111.204 215.9 110.601C213.161 109.957 210.659 108.556 208.678 106.558C206.698 104.56 205.319 102.045 204.7 99.3008C204.081 102.045 202.702 104.56 200.722 106.558C198.741 108.556 196.239 109.957 193.5 110.601C196.241 111.204 198.753 112.579 200.737 114.563C202.722 116.548 204.097 119.059 204.7 121.801Z" fill="#FFF0B2"/>
<path d="M187.9 62.0999C178.441 59.4566 168.577 58.5752 158.8 59.4999C144.5 60.8999 136.8 65.8999 121.5 65.0999C115.628 64.8506 109.813 63.8422 104.2 62.0999V5.49987C109.206 6.85184 114.329 7.72246 119.5 8.09987C136.1 9.39987 144.7 5.19987 161.3 4.09987C170.191 3.58619 179.112 4.0557 187.9 5.49987V62.0999Z" fill="#0052CC"/>
<path d="M138.5 32.5007C138.407 32.361 138.278 32.2499 138.125 32.1799C137.973 32.1099 137.804 32.0838 137.638 32.1046C137.472 32.1254 137.314 32.1922 137.184 32.2975C137.054 32.4029 136.955 32.5425 136.9 32.7007L128.6 49.1007C128.498 49.3399 128.493 49.6094 128.586 49.8521C128.68 50.0948 128.864 50.2916 129.1 50.4007H141C141.167 50.3996 141.329 50.3522 141.471 50.264C141.612 50.1757 141.726 50.05 141.8 49.9007C144.3 44.9007 142.8 37.1007 138.5 32.5007Z" fill="url(#paint12_linear)"/>
<path d="M144.5 17.6002C142.449 20.7492 141.25 24.3771 141.022 28.1284C140.794 31.8797 141.545 35.6259 143.2 39.0002L148.8 50.0002C148.874 50.1494 148.988 50.2751 149.129 50.3634C149.27 50.4517 149.433 50.499 149.6 50.5002H161.1C161.227 50.501 161.353 50.4748 161.469 50.4235C161.585 50.3721 161.689 50.2967 161.774 50.2023C161.859 50.1078 161.923 49.9964 161.962 49.8754C162.001 49.7544 162.014 49.6265 162 49.5002C162.015 49.3592 161.979 49.2175 161.9 49.1002C161.9 49.1002 146.6 18.3002 146.2 17.6002C146.11 17.4555 145.985 17.336 145.836 17.2532C145.687 17.1704 145.52 17.127 145.35 17.127C145.18 17.127 145.012 17.1704 144.863 17.2532C144.715 17.336 144.589 17.4555 144.5 17.6002Z" fill="white"/>
</g>
<defs>
<linearGradient id="paint0_linear" x1="45.1999" y1="219.669" x2="170.52" y2="94.3595" gradientUnits="userSpaceOnUse">
<stop stop-color="#FFC400"/>
<stop offset="0.03" stop-color="#FFC810"/>
<stop offset="0.1" stop-color="#FFD33B"/>
<stop offset="0.18" stop-color="#FFDC5F"/>
<stop offset="0.27" stop-color="#FFE37D"/>
<stop offset="0.35" stop-color="#FFE995"/>
<stop offset="0.45" stop-color="#FFEDA5"/>
<stop offset="0.55" stop-color="#FFEFAF"/>
<stop offset="0.68" stop-color="#FFF0B2"/>
<stop offset="0.77" stop-color="#FFF4C4"/>
<stop offset="0.91" stop-color="#FFF8DC"/>
<stop offset="1" stop-color="#FFFAE5"/>
</linearGradient>
<linearGradient id="paint1_linear" x1="94.5499" y1="194.429" x2="93.9399" y2="33.8988" gradientUnits="userSpaceOnUse">
<stop stop-color="#FFB700" stop-opacity="0"/>
<stop offset="1" stop-color="#FFC400"/>
</linearGradient>
<linearGradient id="paint2_linear" x1="1075.22" y1="8698.38" x2="1033.07" y2="1587.04" gradientUnits="userSpaceOnUse">
<stop stop-color="#FFB700" stop-opacity="0"/>
<stop offset="1" stop-color="#FFC400"/>
</linearGradient>
<linearGradient id="paint3_linear" x1="-89.2801" y1="122.029" x2="103.17" y2="122.029" gradientUnits="userSpaceOnUse">
<stop offset="0.49" stop-color="#FFB700" stop-opacity="0"/>
<stop offset="1" stop-color="#FFC400"/>
</linearGradient>
<linearGradient id="paint4_linear" x1="1175.41" y1="3505.75" x2="1169.45" y2="712.325" gradientUnits="userSpaceOnUse">
<stop stop-color="#FFB700" stop-opacity="0"/>
<stop offset="1" stop-color="#FFC400"/>
</linearGradient>
<linearGradient id="paint5_linear" x1="-2758.18" y1="2459.31" x2="3207.77" y2="2459.31" gradientUnits="userSpaceOnUse">
<stop offset="0.49" stop-color="#FFB700" stop-opacity="0"/>
<stop offset="1" stop-color="#FFC400"/>
</linearGradient>
<linearGradient id="paint6_linear" x1="66.9313" y1="223.299" x2="80.1025" y2="205.423" gradientUnits="userSpaceOnUse">
<stop stop-color="#FFC400" stop-opacity="0"/>
<stop offset="1" stop-color="#FFC400"/>
</linearGradient>
<linearGradient id="paint7_linear" x1="1623.91" y1="3820.63" x2="1845.98" y2="3533.83" gradientUnits="userSpaceOnUse">
<stop stop-color="#FFC400" stop-opacity="0"/>
<stop offset="1" stop-color="#FFC400"/>
</linearGradient>
<linearGradient id="paint8_linear" x1="-21361.9" y1="71583.4" x2="-21103.4" y2="71519.6" gradientUnits="userSpaceOnUse">
<stop stop-color="#FFC400" stop-opacity="0"/>
<stop offset="1" stop-color="#FFC400"/>
</linearGradient>
<linearGradient id="paint9_linear" x1="146.308" y1="111.997" x2="162.258" y2="102.299" gradientUnits="userSpaceOnUse">
<stop stop-color="#FFE380" stop-opacity="0"/>
<stop offset="1" stop-color="#FFE380"/>
</linearGradient>
<linearGradient id="paint10_linear" x1="2982.63" y1="-40988.5" x2="3212.13" y2="-41550.3" gradientUnits="userSpaceOnUse">
<stop stop-color="#FFC400" stop-opacity="0"/>
<stop offset="1" stop-color="#FFC400"/>
</linearGradient>
<linearGradient id="paint11_linear" x1="-3376.54" y1="-39507.4" x2="-3226.98" y2="-39867.2" gradientUnits="userSpaceOnUse">
<stop stop-color="#FFE380" stop-opacity="0"/>
<stop offset="1" stop-color="#FFE380"/>
</linearGradient>
<linearGradient id="paint12_linear" x1="142.98" y1="35.0407" x2="134.31" y2="50.0507" gradientUnits="userSpaceOnUse">
<stop stop-color="white" stop-opacity="0.4"/>
<stop offset="0.92" stop-color="white"/>
</linearGradient>
<clipPath id="clip0">
<path d="M0.399902 0.400391H215.9V254.3H0.399902V0.400391Z" fill="white"/>
</clipPath>
</defs>
</svg>
