<svg width="44" height="44" viewBox="0 0 44 44" fill="none" xmlns="http://www.w3.org/2000/svg">
<rect width="44" height="44" rx="4" fill="white" fill-opacity="0.01"/>
<g clip-path="url(#clip0_730_547)">
<rect width="28" height="28" transform="translate(8 8)" fill="white" fill-opacity="0.01"/>
<path d="M13.9738 36L13.5243 35.9744C12.102 35.8517 10.7665 35.1849 9.75651 34.0932C8.74655 33.0014 8.12812 31.556 8.01185 30.0156C7.9479 29.1251 8.05581 28.23 8.32872 27.3872C8.60163 26.5444 9.03355 25.7724 9.59698 25.1204C10.1585 24.4675 10.8377 23.9465 11.5926 23.5894C12.3475 23.2323 13.162 23.0468 13.9857 23.0444C14.1582 23.0444 14.3237 23.1187 14.4457 23.2508C14.5677 23.383 14.6363 23.5623 14.6363 23.7492C14.6363 23.9361 14.5677 24.1154 14.4457 24.2476C14.3237 24.3798 14.1582 24.454 13.9857 24.454C13.1363 24.4529 12.3026 24.7019 11.5738 25.1745C10.845 25.6471 10.2486 26.3255 9.84829 27.137C9.44799 27.9485 9.2589 28.8627 9.30126 29.7817C9.34362 30.7007 9.61583 31.5899 10.0888 32.3542C10.5617 33.1185 11.2176 33.7291 11.9862 34.1207C12.7548 34.5123 13.6072 34.6701 14.4523 34.5773C15.2973 34.4845 16.1032 34.1446 16.7836 33.5939C17.464 33.0431 17.9935 32.3024 18.3152 31.4508C18.6052 30.6714 19.1037 30.0036 19.7465 29.5332C20.3894 29.0629 21.1474 28.8113 21.9231 28.811H30.0144C30.1869 28.811 30.3524 28.8852 30.4744 29.0174C30.5965 29.1496 30.665 29.3289 30.665 29.5158C30.665 29.7027 30.5965 29.882 30.4744 30.0142C30.3524 30.1463 30.1869 30.2206 30.0144 30.2206H21.9231C21.4043 30.2227 20.8978 30.392 20.4681 30.7069C20.0383 31.0218 19.7048 31.4681 19.5099 31.989C19.059 33.1774 18.2917 34.1935 17.3058 34.9078C16.3198 35.6221 15.1599 36.0024 13.9738 36V36Z" fill="url(#paint0_linear_730_547)"/>
<path d="M30.0262 36C28.9744 35.9992 27.9412 35.6993 27.0299 35.1304C26.1186 34.5615 25.3611 33.7434 24.8331 32.7579C24.7597 32.5975 24.7453 32.4128 24.793 32.2413C24.8407 32.0698 24.9469 31.9245 25.09 31.8348C25.2331 31.745 25.4023 31.7177 25.5633 31.7582C25.7243 31.7988 25.8651 31.9042 25.9569 32.0531C26.2733 32.643 26.6961 33.158 27.2 33.5674C27.7039 33.9767 28.2786 34.2721 28.8901 34.4359C29.5015 34.5997 30.1371 34.6285 30.759 34.5208C31.381 34.4131 31.9766 34.1709 32.5103 33.8087C33.4117 33.1895 34.0907 32.2554 34.4352 31.1611C34.7797 30.0668 34.7689 28.8779 34.4046 27.7912C34.0403 26.7044 33.3444 25.785 32.432 25.1851C31.5196 24.5853 30.4455 24.3409 29.3874 24.4925C28.6182 24.6076 27.8347 24.4715 27.1372 24.1017C26.4398 23.7319 25.8599 23.1452 25.4719 22.4165L21.4381 14.8302C21.3887 14.7501 21.3549 14.6598 21.339 14.565C21.323 14.4702 21.3252 14.3729 21.3453 14.279C21.3655 14.1851 21.4032 14.0967 21.4561 14.0193C21.509 13.9418 21.5761 13.8769 21.6531 13.8286C21.7301 13.7804 21.8154 13.7497 21.9037 13.7385C21.9921 13.7274 22.0816 13.736 22.1668 13.7638C22.252 13.7916 22.331 13.838 22.3989 13.9002C22.4669 13.9624 22.5224 14.0391 22.5619 14.1254L26.5957 21.7117C26.8546 22.1982 27.2418 22.5899 27.7076 22.8364C28.1734 23.083 28.6965 23.1733 29.21 23.0957C30.5641 22.8912 31.942 23.1962 33.1136 23.9596C34.2852 24.723 35.1797 25.8987 35.6476 27.2904C36.1155 28.6821 36.1286 30.2055 35.6846 31.6064C35.2407 33.0073 34.3666 34.2008 33.2083 34.9877C32.2579 35.6456 31.1541 35.9968 30.0262 36V36Z" fill="url(#paint1_linear_730_547)"/>
<path d="M13.9856 30.2206C13.8705 30.2249 13.7565 30.1953 13.6556 30.1351C13.5547 30.0749 13.4707 29.9863 13.4125 29.8786C13.3543 29.7709 13.3241 29.6482 13.325 29.5234C13.326 29.3986 13.358 29.2764 13.4178 29.1698L17.4634 21.5835C17.7234 21.0984 17.8432 20.5399 17.8074 19.9803C17.7715 19.4207 17.5817 18.8855 17.2623 18.4439C16.6029 17.5151 16.1886 16.4097 16.0637 15.2457C15.9388 14.0817 16.1081 12.9029 16.5533 11.8349C16.9986 10.767 17.7031 9.85003 18.5918 9.18196C19.4805 8.51389 20.52 8.11976 21.5993 8.04163C22.6786 7.96349 23.7572 8.20429 24.7201 8.73833C25.6829 9.27236 26.4938 10.0796 27.0663 11.0739C27.6387 12.0681 27.9513 13.2121 27.9705 14.3837C27.9897 15.5554 27.7148 16.7107 27.1753 17.7263C27.1358 17.8126 27.0803 17.8893 27.0124 17.9515C26.9444 18.0137 26.8654 18.0601 26.7802 18.0879C26.6951 18.1157 26.6055 18.1243 26.5172 18.1132C26.4288 18.102 26.3435 18.0714 26.2665 18.0231C26.1895 17.9748 26.1225 17.9099 26.0695 17.8325C26.0166 17.755 25.9789 17.6666 25.9588 17.5727C25.9386 17.4789 25.9365 17.3815 25.9524 17.2867C25.9684 17.1919 26.0021 17.1016 26.0515 17.0215C26.6415 15.8736 26.7976 14.5226 26.4868 13.2527C26.1761 11.9827 25.4228 10.8928 24.3854 10.2122C23.348 9.53165 22.1074 9.31343 20.9245 9.6035C19.7417 9.89356 18.7088 10.6693 18.0431 11.7675C17.533 12.6494 17.2835 13.6789 17.3279 14.7185C17.3723 15.7581 17.7085 16.7582 18.2915 17.5854C18.7661 18.2489 19.0477 19.0505 19.1004 19.8881C19.153 20.7256 18.9744 21.5611 18.5872 22.2883L14.5416 29.8746C14.4844 29.9794 14.4031 30.0663 14.3057 30.1269C14.2083 30.1876 14.098 30.2198 13.9856 30.2206V30.2206Z" fill="url(#paint2_linear_730_547)"/>
<path d="M30.0143 33.5908C29.2698 33.5934 28.5414 33.3565 27.9212 32.9103C27.3011 32.4641 26.8171 31.8285 26.5305 31.0841C26.244 30.3398 26.1678 29.52 26.3116 28.7287C26.4554 27.9373 26.8128 27.21 27.3384 26.6389C27.864 26.0677 28.5342 25.6783 29.2643 25.52C29.9943 25.3617 30.7513 25.4417 31.4393 25.7497C32.1274 26.0578 32.7156 26.5801 33.1294 27.2505C33.5433 27.9209 33.7642 28.7093 33.7642 29.5158C33.7642 30.5943 33.3695 31.6289 32.6666 32.3928C31.9637 33.1566 31.01 33.5875 30.0143 33.5908V33.5908Z" fill="#42526E"/>
<path d="M13.8673 33.5908C13.1233 33.5676 12.4023 33.3058 11.7957 32.8385C11.189 32.3712 10.724 31.7195 10.4595 30.9658C10.1949 30.2121 10.1427 29.3903 10.3095 28.6044C10.4763 27.8186 10.8545 27.104 11.3964 26.5511C11.9382 25.9982 12.6193 25.6319 13.3534 25.4985C14.0875 25.3652 14.8417 25.4707 15.5204 25.8019C16.1991 26.133 16.7718 26.6748 17.1661 27.3588C17.5605 28.0427 17.7586 28.838 17.7355 29.6439C17.7046 30.7226 17.28 31.7439 16.5548 32.4839C15.8296 33.2238 14.8631 33.6219 13.8673 33.5908Z" fill="#FF5630"/>
<path style="mix-blend-mode:multiply" d="M14.3997 31.1176C14.3855 30.6289 14.3221 30.1433 14.2104 29.6696C14.2104 29.6696 13.9383 28.465 13.3469 27.5167C12.9696 26.9514 12.5007 26.465 11.9628 26.0815C11.2849 26.5496 10.7633 27.2406 10.4744 28.0533C10.1855 28.866 10.1445 29.7576 10.3575 30.5974C10.5705 31.4371 11.0262 32.1809 11.6578 32.7196C12.2895 33.2583 13.0638 33.5637 13.8673 33.5908C14.4019 33.6067 14.9336 33.502 15.4288 33.2833C14.8965 32.6682 14.4706 31.9634 14.3997 31.1176Z" fill="url(#paint3_linear_730_547)"/>
<path style="mix-blend-mode:multiply" d="M30.4284 31.1176C30.4143 30.6289 30.3508 30.1433 30.2391 29.6696C30.2391 29.6696 29.9671 28.465 29.3756 27.5167C28.9984 26.9514 28.5294 26.465 27.9916 26.0815C27.3137 26.5496 26.792 27.2406 26.5031 28.0533C26.2142 28.866 26.1733 29.7576 26.3862 30.5974C26.5992 31.4371 27.0549 32.1809 27.6866 32.7196C28.3182 33.2583 29.0926 33.5637 29.8961 33.5908C30.4306 33.6067 30.9624 33.502 31.4576 33.2833C30.9252 32.6682 30.4994 31.9634 30.4284 31.1176Z" fill="url(#paint4_linear_730_547)"/>
<path d="M18.6346 12.3313C19.0148 11.618 19.5817 11.0429 20.2636 10.6786C20.9455 10.3143 21.7119 10.1773 22.4657 10.2848C23.2196 10.3923 23.927 10.7395 24.4987 11.2826C25.0704 11.8256 25.4806 12.5401 25.6774 13.3357C25.8742 14.1313 25.8489 14.9723 25.6046 15.7522C25.3602 16.5322 24.9079 17.2162 24.3047 17.7177C23.7015 18.2192 22.9747 18.5157 22.2159 18.5697C21.4572 18.6237 20.7008 18.4328 20.0423 18.021C19.6038 17.7489 19.2193 17.3854 18.911 16.9516C18.6026 16.5178 18.3765 16.0223 18.2457 15.4935C18.1149 14.9646 18.0819 14.413 18.1486 13.8703C18.2154 13.3276 18.3805 12.8046 18.6346 12.3313V12.3313Z" fill="#0065FF"/>
<path style="mix-blend-mode:multiply" d="M22.4555 16.4833C22.4413 15.9946 22.3779 15.509 22.2662 15.0352C22.2662 15.0352 21.9941 13.8307 21.4026 12.8824C21.0005 12.2416 20.338 11.6265 19.5809 11.1524C19.2021 11.48 18.8815 11.8795 18.6346 12.3314C18.2428 13.0679 18.0685 13.9166 18.135 14.7636C18.2015 15.6105 18.5056 16.4152 19.0066 17.0695C19.5075 17.7237 20.1812 18.1963 20.9373 18.4237C21.6934 18.651 22.4956 18.6223 23.2362 18.3414C22.8222 17.7904 22.5146 17.1881 22.4555 16.4833Z" fill="url(#paint5_linear_730_547)"/>
</g>
<defs>
<linearGradient id="paint0_linear_730_547" x1="8.00002" y1="29.5196" x2="30.6603" y2="29.5196" gradientUnits="userSpaceOnUse">
<stop stop-color="#505F79"/>
<stop offset="1" stop-color="#344563"/>
</linearGradient>
<linearGradient id="paint1_linear_730_547" x1="21.3482" y1="24.8884" x2="35.9953" y2="24.8884" gradientUnits="userSpaceOnUse">
<stop stop-color="#0052CC"/>
<stop offset="1" stop-color="#2684FF"/>
</linearGradient>
<linearGradient id="paint2_linear_730_547" x1="13.3303" y1="19.1116" x2="27.9762" y2="19.1116" gradientUnits="userSpaceOnUse">
<stop stop-color="#DE350B"/>
<stop offset="1" stop-color="#FF7452"/>
</linearGradient>
<linearGradient id="paint3_linear_730_547" x1="19.242" y1="33.5245" x2="6.88367" y2="27.6" gradientUnits="userSpaceOnUse">
<stop offset="0.31" stop-color="#C1C7D0" stop-opacity="0"/>
<stop offset="1" stop-color="#C1C7D0"/>
</linearGradient>
<linearGradient id="paint4_linear_730_547" x1="18970.4" y1="-5331.18" x2="19008.1" y2="-6186.26" gradientUnits="userSpaceOnUse">
<stop offset="0.31" stop-color="#C1C7D0" stop-opacity="0"/>
<stop offset="1" stop-color="#C1C7D0"/>
</linearGradient>
<linearGradient id="paint5_linear_730_547" x1="19016.3" y1="-6101.1" x2="19053.7" y2="-6946.16" gradientUnits="userSpaceOnUse">
<stop offset="0.31" stop-color="#C1C7D0" stop-opacity="0"/>
<stop offset="1" stop-color="#C1C7D0"/>
</linearGradient>
<clipPath id="clip0_730_547">
<rect width="28" height="28" fill="white" transform="translate(8 8)"/>
</clipPath>
</defs>
</svg>
